<?xml version="1.0" encoding="UTF-8" standalone="no"?>
<!-- Created with Inkscape (http://www.inkscape.org/) -->

<svg
   xmlns:dc="http://purl.org/dc/elements/1.1/"
   xmlns:cc="http://creativecommons.org/ns#"
   xmlns:rdf="http://www.w3.org/1999/02/22-rdf-syntax-ns#"
   xmlns:svg="http://www.w3.org/2000/svg"
   xmlns="http://www.w3.org/2000/svg"
   xmlns:sodipodi="http://sodipodi.sourceforge.net/DTD/sodipodi-0.dtd"
   xmlns:inkscape="http://www.inkscape.org/namespaces/inkscape"
   width="400"
   height="200"
   viewBox="0 0 399.99998 199.99999"
   id="svg2"
   version="1.1"
   inkscape:version="0.91 r13725"
   sodipodi:docname="comical-thumb.svg">
  <defs
     id="defs4" />
  <sodipodi:namedview
     id="base"
     pagecolor="#ffffff"
     bordercolor="#666666"
     borderopacity="1.0"
     inkscape:pageopacity="0.0"
     inkscape:pageshadow="2"
     inkscape:zoom="2"
     inkscape:cx="151.78555"
     inkscape:cy="95.498807"
     inkscape:document-units="px"
     inkscape:current-layer="g4233"
     showgrid="false"
     units="px"
     inkscape:snap-bbox="true"
     inkscape:bbox-paths="true"
     inkscape:bbox-nodes="true"
     inkscape:snap-bbox-edge-midpoints="true"
     inkscape:snap-bbox-midpoints="true"
     inkscape:snap-object-midpoints="true"
     inkscape:snap-center="true"
     inkscape:snap-page="true"
     inkscape:window-width="1440"
     inkscape:window-height="873"
     inkscape:window-x="0"
     inkscape:window-y="27"
     inkscape:window-maximized="1" />
  <metadata
     id="metadata7">
    <rdf:RDF>
      <cc:Work
         rdf:about="">
        <dc:format>image/svg+xml</dc:format>
        <dc:type
           rdf:resource="http://purl.org/dc/dcmitype/StillImage" />
        <dc:title />
      </cc:Work>
    </rdf:RDF>
  </metadata>
  <g
     inkscape:groupmode="layer"
     id="layer2"
     inkscape:label="bg">
    <g
       transform="translate(0,-852.36232)"
       style=""
       id="g4233">
      <rect
         y="852.36224"
         x="7.1054274e-15"
         height="200"
         width="70.266998"
         id="rect4213"
         style="opacity:1;fill:#6abf33;fill-opacity:1;fill-rule:nonzero;stroke:none;stroke-opacity:1" />
      <rect
         style="opacity:1;fill:#f0ba1b;fill-opacity:1;fill-rule:nonzero;stroke:none;stroke-opacity:1"
         id="rect4215"
         width="67.566994"
         height="200"
         x="66.666664"
         y="852.36224" />
      <rect
         y="852.36224"
         x="133.33333"
         height="200"
         width="67.666992"
         id="rect4217"
         style="opacity:1;fill:#e08b23;fill-opacity:1;fill-rule:nonzero;stroke:none;stroke-opacity:1" />
      <rect
         style="opacity:1;fill:#c53c4b;fill-opacity:1;fill-rule:nonzero;stroke:none;stroke-opacity:1"
         id="rect4219"
         width="67.466995"
         height="200"
         x="200"
         y="852.36224" />
      <rect
         y="852.36224"
         x="266.66666"
         height="200"
         width="67.566994"
         id="rect4221"
         style="opacity:1;fill:#8f3a86;fill-opacity:1;fill-rule:nonzero;stroke:none;stroke-opacity:1" />
      <rect
         style="opacity:1;fill:#209fe0;fill-opacity:1;fill-rule:nonzero;stroke:none;stroke-opacity:1"
         id="rect4223"
         width="67.066994"
         height="200"
         x="333.33331"
         y="852.36224" />
    </g>
  </g>
  <g
     inkscape:label="fg"
     inkscape:groupmode="layer"
     id="layer1"
     transform="translate(0,-852.36225)">
    <g
       transform="translate(77.150383,872.49111)"
       style="font-style:normal;font-variant:normal;font-weight:normal;font-stretch:normal;font-size:50px;line-height:125%;font-family:'Comic Sans MS';-inkscape-font-specification:'Comic Sans MS';letter-spacing:0px;word-spacing:0px;fill:#ffffff;fill-opacity:1;stroke:none;stroke-width:1px;stroke-linecap:butt;stroke-linejoin:miter;stroke-opacity:1"
       id="flowRoot4225">
      <path
         d="m 53.000977,99.536595 q -5.004883,0 -8.34961,-3.027343 -3.515625,-3.173828 -3.515625,-8.374024 0,-4.956054 3.295899,-10.229492 3.662109,-5.859375 8.251953,-5.859375 2.392578,0 5.346679,1.123047 3.735352,1.44043 3.735352,3.515625 0,0.927734 -0.610352,1.660156 -0.610351,0.708008 -1.513671,0.708008 -0.708008,0 -1.245118,-0.415039 -0.512695,-0.439453 -1.000976,-0.854492 -1.44043,-1.147461 -4.711914,-1.147461 -2.490235,0 -4.931641,4.443359 -2.22168,4.077149 -2.22168,7.055664 0,3.222656 2.197266,5.078125 2.050781,1.733399 5.273438,1.733399 1.464843,0 3.125,-0.78125 l 2.832031,-1.513672 q 0.732422,-0.390625 1.049805,-0.390625 0.90332,0 1.562499,0.732422 0.65918,0.708007 0.65918,1.635742 0,1.782226 -3.759765,3.442383 -3.295899,1.464843 -5.46875,1.464843 z"
         style=""
         id="path4269" />
      <path
         d="m 76.804687,99.438939 q -4.101562,0 -7.055664,-3.027344 -3.295898,-3.36914 -3.466796,-9.057617 -0.146485,-5.517578 2.783203,-9.716797 3.417968,-4.956054 9.521484,-4.956054 4.882813,0 7.397461,4.467773 2.001953,3.613281 1.928711,8.691406 -0.07324,5.419922 -2.832031,9.25293 -3.125,4.345703 -8.276368,4.345703 z m 1.464844,-21.801758 q -3.588867,-0.02441 -5.59082,3.417969 -1.586914,2.758789 -1.586914,6.298828 0,3.540039 1.928711,5.517578 1.611328,1.635743 3.784179,1.635743 2.539063,0 4.370118,-1.855469 2.075195,-2.050781 2.197265,-5.541992 0.341797,-9.448243 -5.102539,-9.472657 z"
         style=""
         id="path4271" />
      <path
         d="m 124.9248,100.02488 q -2.00195,0 -2.34375,-2.124027 -0.43945,-2.685547 -0.8789,-7.568359 l -0.83008,-7.56836 q -0.24414,-1.68457 -0.83008,-3.295898 -0.83008,-2.197266 -1.80664,-2.197266 -0.90332,0 -3.36914,1.538086 -2.34375,1.416016 -3.07617,2.270508 -0.0244,2.294922 0.12207,4.589844 l 0.73242,6.518555 q 0.46387,3.857421 0.46387,6.37207 0,1.074219 -0.6836,1.757817 -0.65917,0.708 -1.70898,0.708 -1.0498,0 -1.7334,-0.708 -0.65918,-0.683598 -0.65918,-1.757817 0,-2.954102 -0.61035,-8.71582 -0.58594,-5.786133 -0.58594,-8.740235 0,-2.58789 -0.73242,-4.02832 -1.70898,0.78125 -3.4668,2.539062 l -2.88086,3.222657 q -0.39062,0.585937 -1.245112,1.538086 0,1.464843 -0.268555,4.321289 -0.268555,2.856445 -0.268555,4.223632 0,0.732422 0.219727,2.050782 0.244141,1.318359 0.244141,1.904297 0,1.000976 -0.756836,1.68457 -0.732422,0.683594 -1.733399,0.683594 -2.758789,0 -2.758789,-6.274414 0,-1.464844 0.268555,-4.370118 0.268555,-2.905273 0.268555,-4.370117 0,-1.293945 -0.244141,-3.881836 -0.219727,-2.58789 -0.219727,-3.90625 0,-5.541992 2.490235,-5.541992 0.952148,0 1.733398,0.830078 0.805664,0.830078 0.805664,1.806641 0,0.463867 -0.12207,1.44043 -0.12207,0.976562 -0.12207,1.489257 l 0.04883,2.563477 q 1.269531,-2.612305 3.735351,-4.711914 2.46582,-2.124024 4.19922,-2.124024 3.83301,0 5.27344,3.808594 1.34277,-1.782226 3.19824,-2.661133 1.85547,-0.90332 4.24805,-0.90332 4.07714,0 5.5664,4.394531 0.29297,0.878907 1.00098,6.860352 0.68359,4.199219 1.75781,13.989258 0.0732,0.976562 -0.65918,1.660156 -0.73242,0.683597 -1.78223,0.683597 z"
         style=""
         id="path4273" />
      <path
         d="m 137.44922,67.090306 q -1.17188,0 -2.02637,-0.830078 -0.85449,-0.830078 -0.85449,-2.001953 0,-1.171875 0.85449,-2.001953 0.85449,-0.830078 2.02637,-0.830078 1.17187,0 2.00195,0.830078 0.85449,0.830078 0.85449,2.001953 0,1.171875 -0.85449,2.001953 -0.83008,0.830078 -2.00195,0.830078 z m 1.09863,19.824219 q 0,1.464844 0.0732,4.394531 0.0977,2.905274 0.0977,4.370118 0,1.074218 -0.65918,1.757812 -0.65918,0.683594 -1.7334,0.683594 -1.0498,0 -1.7334,-0.683594 -0.65918,-0.683594 -0.65918,-1.757812 0,-1.464844 -0.0977,-4.370118 -0.0732,-2.929687 -0.0732,-4.394531 0,-2.294922 0.24414,-5.712891 0.24414,-3.442382 0.24414,-5.737304 0,-1.098633 0.65918,-1.782227 0.68359,-0.683594 1.73339,-0.683594 1.04981,0 1.70899,0.683594 0.68359,0.683594 0.68359,1.782227 0,2.294922 -0.24414,5.737304 -0.24414,3.417969 -0.24414,5.712891 z"
         style=""
         id="path4275" />
      <path
         d="m 157.88379,99.536595 q -5.00488,0 -8.34961,-3.027343 -3.51563,-3.173828 -3.51563,-8.374024 0,-4.956054 3.2959,-10.229492 3.66211,-5.859375 8.25196,-5.859375 2.39257,0 5.34668,1.123047 3.73535,1.44043 3.73535,3.515625 0,0.927734 -0.61035,1.660156 -0.61036,0.708008 -1.51368,0.708008 -0.708,0 -1.24511,-0.415039 -0.5127,-0.439453 -1.00098,-0.854492 -1.44043,-1.147461 -4.71191,-1.147461 -2.49024,0 -4.93164,4.443359 -2.22168,4.077149 -2.22168,7.055664 0,3.222656 2.19726,5.078125 2.05078,1.733399 5.27344,1.733399 1.46484,0 3.125,-0.78125 l 2.83203,-1.513672 q 0.73242,-0.390625 1.04981,-0.390625 0.90332,0 1.5625,0.732422 0.65917,0.708007 0.65917,1.635742 0,1.782226 -3.75976,3.442383 -3.2959,1.464843 -5.46875,1.464843 z"
         style=""
         id="path4277" />
      <path
         d="m 191.59961,99.609838 q -0.46387,0 -1.68457,-1.074219 -1.09863,-1.000977 -1.63574,-1.782227 -2.34375,1.269532 -4.12598,1.904297 -1.78223,0.65918 -2.97852,0.65918 -5.71289,0 -8.32519,-3.222656 -2.46582,-3.027344 -2.46582,-9.277344 0,-5.908203 4.05273,-10.107422 4.07715,-4.199219 9.7168,-4.199219 2.12402,0 4.76074,1.098633 3.32032,1.367188 3.32032,3.295898 0,0.65918 -0.48829,1.171875 -0.24414,0.927735 -0.39062,3.051758 -0.12207,2.124024 -0.14649,5.444336 -0.0244,3.027344 0.41504,4.785156 0.24414,1.074219 1.53809,4.296875 0.1709,0.439454 0.56152,1.293946 l 0.14649,0.415039 q 0,0.976562 -0.6836,1.611328 -0.68359,0.634766 -1.58691,0.634766 z m -5.07813,-16.967774 q 0,-1.049805 0.12207,-2.270508 0.14649,-1.245117 0.41504,-2.636718 -0.90332,-0.463868 -1.5625,-0.683594 -0.63476,-0.219727 -1.02539,-0.219727 -3.78418,0 -6.54297,3.100586 -2.73437,3.076172 -2.73437,7.104492 0,4.003907 1.41602,6.00586 1.41601,2.001953 4.24804,2.001953 2.34375,0 3.97949,-0.854492 0.87891,-0.463867 2.46582,-1.855469 -0.78125,-6.469727 -0.78125,-9.692383 z"
         style=""
         id="path4279" />
      <path
         d="m 204.31934,78.809056 -0.36621,12.133789 q 0,1.928711 -0.19532,5.664063 -0.24414,2.441406 -2.39258,2.441406 -2.39257,0 -2.39257,-2.490234 0,-2.954102 0.26855,-8.862305 0.26856,-5.932617 0.26856,-8.886719 0,-3.857422 0.12207,-8.813476 0.12207,-4.980469 0.12207,-8.837891 0,-2.441406 2.39257,-2.441406 2.417,0 2.417,2.441406 0,3.857422 -0.12207,8.837891 -0.12207,4.956054 -0.12207,8.813476 z"
         style=""
         id="path4281" />
    </g>
  </g>
</svg>
