<?xml version="1.0" encoding="UTF-8" standalone="no"?>
<!-- Created with Inkscape (http://www.inkscape.org/) -->

<svg
   xmlns:dc="http://purl.org/dc/elements/1.1/"
   xmlns:cc="http://creativecommons.org/ns#"
   xmlns:rdf="http://www.w3.org/1999/02/22-rdf-syntax-ns#"
   xmlns:svg="http://www.w3.org/2000/svg"
   xmlns="http://www.w3.org/2000/svg"
   xmlns:sodipodi="http://sodipodi.sourceforge.net/DTD/sodipodi-0.dtd"
   xmlns:inkscape="http://www.inkscape.org/namespaces/inkscape"
   width="400"
   height="200"
   viewBox="0 0 399.99998 200"
   id="svg2"
   version="1.1"
   inkscape:version="0.91 r13725"
   sodipodi:docname="jake-vector.svg">
  <defs
     id="defs4" />
  <sodipodi:namedview
     id="base"
     pagecolor="#ffffff"
     bordercolor="#666666"
     borderopacity="1.0"
     inkscape:pageopacity="0.0"
     inkscape:pageshadow="2"
     inkscape:zoom="2"
     inkscape:cx="214.19532"
     inkscape:cy="94.507603"
     inkscape:document-units="px"
     inkscape:current-layer="layer3"
     showgrid="false"
     fit-margin-top="0"
     fit-margin-left="0"
     fit-margin-right="0"
     fit-margin-bottom="0"
     units="px"
     inkscape:window-width="1440"
     inkscape:window-height="873"
     inkscape:window-x="0"
     inkscape:window-y="27"
     inkscape:window-maximized="1"
     inkscape:snap-grids="true"
     inkscape:snap-page="true"
     inkscape:snap-object-midpoints="true"
     inkscape:snap-center="true"
     inkscape:object-paths="true"
     inkscape:snap-intersection-paths="true"
     inkscape:object-nodes="true"
     inkscape:snap-smooth-nodes="true"
     inkscape:snap-midpoints="true"
     inkscape:snap-bbox="true"
     inkscape:bbox-paths="true"
     inkscape:bbox-nodes="true"
     inkscape:snap-bbox-edge-midpoints="true"
     inkscape:snap-bbox-midpoints="true" />
  <metadata
     id="metadata7">
    <rdf:RDF>
      <cc:Work
         rdf:about="">
        <dc:format>image/svg+xml</dc:format>
        <dc:type
           rdf:resource="http://purl.org/dc/dcmitype/StillImage" />
        <dc:title></dc:title>
      </cc:Work>
    </rdf:RDF>
  </metadata>
  <g
     inkscape:groupmode="layer"
     id="layer4"
     inkscape:label="bg"
     transform="translate(-0.70105472,-47.878684)"
     style="display:inline"
     sodipodi:insensitive="true">
    <g
       id="g3453"
       transform="matrix(0.16666666,0,0,0.13333332,320.64901,457.57495)">
      <path
         style="fill:#f7be27"
         d="m -1919.6879,-2322.7223 0,-750 1200.00021,0 1199.9999,0 0,750 0,750.0001 -1199.9999,0 -1200.00021,0 z"
         id="path3457"
         inkscape:connector-curvature="0"
         sodipodi:nodetypes="ccccccccc" />
    </g>
  </g>
  <g
     inkscape:groupmode="layer"
     id="layer3"
     inkscape:label="face"
     transform="translate(-0.70105472,-47.878684)"
     style="display:inline"
     sodipodi:insensitive="true">
    <g
       id="g4325"
       transform="matrix(0.78372316,0,0,0.78372316,41.215662,45.825846)">
      <path
         inkscape:connector-curvature="0"
         d="m 214.26186,177.0256 c 4.99997,-0.77721 10.41036,-2.50318 13.73694,-4.3822 l 1.446,-0.81676 0.0535,-10.88665 c 0.0294,-5.98767 -0.0172,-10.88652 -0.10329,-10.88634 -0.0862,0 -0.9004,0.75613 -1.80931,1.67988 -2.30927,2.34701 -4.50201,3.92278 -7.56177,5.43417 -8.73491,4.31466 -20.23777,4.50226 -29.201,0.47626 -3.18525,-1.43072 -6.77131,-3.90509 -8.87634,-6.12463 -0.33368,-0.35185 -0.68227,-0.63972 -0.77464,-0.63972 -0.0924,0 -0.16791,4.68756 -0.16791,10.41682 l 0,10.41681 0.52012,0.40914 c 0.75561,0.59436 3.89634,2.16468 5.57371,2.78677 3.18484,1.18115 6.56962,1.95031 10.58899,2.40618 2.65002,0.30057 14.06073,0.10111 16.57504,-0.28973 z m -56.97237,26.95748 c 8.25419,-1.7804 13.66957,-6.02111 17.19633,-13.46617 1.79392,-3.78702 2.96772,-8.37495 3.42905,-13.40284 0.16308,-1.7773 0.21781,-8.31257 0.17564,-20.96692 l -0.0613,-18.38478 0.46917,-1.32796 c 2.81828,-7.97718 11.3165,-13.57263 22.64245,-14.90837 2.88639,-0.34041 8.32248,-0.1259 10.95204,0.43217 6.80827,1.44492 12.2933,4.50264 16.26748,9.06861 2.19748,2.52467 3.46277,5.73076 3.85998,9.7807 0.12412,1.2654 0.1918,8.77672 0.16803,18.64476 -0.03,12.43881 0.0257,17.03651 0.22525,18.59135 1.4119,11.0027 5.1085,17.99603 11.90182,22.51615 2.10705,1.40197 4.046,2.27681 6.41269,2.89334 3.35897,0.87502 4.77021,1.03196 9.19239,1.0223 3.50043,-0.008 4.57499,-0.0839 6.19712,-0.43946 9.61832,-2.10853 15.46585,-8.3066 17.54972,-18.60178 1.5355,-7.58596 0.57235,-20.00133 -2.3811,-30.69313 -3.76421,-13.62689 -11.55641,-26.68833 -20.72747,-34.74374 -4.64138,-4.07676 -8.95178,-6.979 -14.58177,-9.81804 -11.98722,-6.04478 -23.53172,-8.34922 -41.83054,-8.34988 -5.5503,0 -8.21218,0.0894 -10.94825,0.36828 -20.04249,2.04319 -35.20244,8.81107 -46.9044,20.93957 -11.20548,11.61395 -18.31979,27.89039 -20.36046,46.58163 -0.45525,4.16977 -0.45601,10.48275 -0.002,13.38574 1.79549,11.47093 7.28878,18.2246 16.78782,20.63962 2.68512,0.68267 4.26411,0.82185 8.44156,0.74407 2.98928,-0.0557 4.40242,-0.17608 5.92837,-0.50522 z m -9.4212,3.48516 c -7.39752,-0.6386 -12.5184,-2.74537 -16.70846,-6.874 -5.5598,-5.47829 -8.41311,-13.57414 -8.40652,-23.85225 0.003,-5.23253 0.47364,-9.11209 2.19099,-18.0742 0.5181,-2.70372 0.8953,-5.03757 0.83823,-5.1863 -0.0571,-0.14874 -1.01813,-0.48041 -2.13567,-0.73703 -10.11128,-2.32194 -19.59204,-8.07655 -26.554845,-16.11822 C 83.706151,121.1663 80.923449,98.922614 90.093602,80.684086 96.46662,68.008784 108.32756,58.271956 121.93735,54.543077 c 4.92734,-1.350013 7.48634,-1.669685 13.41455,-1.675767 5.72586,-0.0058 7.43231,0.182195 12.152,1.339123 12.28407,3.011154 23.04999,10.551244 29.98698,21.001847 4.4119,6.646532 7.0786,13.678045 8.27256,21.813058 0.21822,1.486829 0.47109,2.777664 0.56195,2.868522 0.0909,0.09086 1.23139,0.03396 2.53452,-0.126438 9.77148,-1.202736 20.61553,-1.358342 29.10059,-0.417603 1.53085,0.169735 2.8559,0.236052 2.94456,0.147392 0.0887,-0.08866 0.26345,-1.088924 0.38838,-2.222782 1.28457,-11.657636 7.64653,-23.827633 16.5316,-31.623771 7.71565,-6.770094 16.0945,-10.719905 26.32361,-12.409025 3.23055,-0.533464 11.6368,-0.533993 14.87308,-0.0017 3.31592,0.546172 7.11694,1.509502 9.70882,2.460602 18.3507,6.733936 31.02144,22.808646 33.28262,42.224015 0.40002,3.43465 0.29255,9.51857 -0.2276,12.88362 -1.37647,8.90514 -5.21615,17.66089 -10.77995,24.58177 -5.79036,7.20265 -14.61719,13.27143 -23.7192,16.3078 -1.7032,0.56817 -3.12377,1.11426 -3.15684,1.21353 -0.0331,0.0993 0.26393,1.4729 0.66005,3.05252 3.094,12.33789 3.62541,22.42816 1.64599,31.25374 -1.24103,5.53336 -3.3894,9.58543 -6.97543,13.15642 -3.91378,3.8974 -7.61906,5.68115 -13.96883,6.72477 -3.54439,0.58255 -8.45239,0.57536 -11.85682,-0.0174 -9.24003,-1.60867 -16.03042,-6.61439 -20.05094,-14.7811 -2.15139,-4.37004 -3.37725,-8.82411 -3.88361,-14.11099 -0.13523,-1.41182 -0.34503,-2.60501 -0.46621,-2.65151 -0.12118,-0.0465 -1.09933,0.32582 -2.17367,0.8274 -6.03146,2.81596 -13.19976,4.13461 -22.50708,4.14029 -5.47891,0.003 -7.50441,-0.18284 -12.18766,-1.12032 -3.27212,-0.65501 -6.44486,-1.62163 -9.18147,-2.79727 -0.96845,-0.41605 -1.9016,-0.70242 -2.07366,-0.6364 -0.21467,0.0824 -0.31281,0.40906 -0.31281,1.04115 0,2.33117 -0.97178,7.53672 -1.98612,10.63919 -2.55748,7.82224 -7.34354,13.63326 -13.87622,16.84789 -4.93618,2.42901 -11.08992,3.50775 -17.0668,2.9918 z"
         style="display:inline;fill:#070504;fill-rule:evenodd"
         id="path3513" />
      <path
         inkscape:connector-curvature="0"
         id="path3511"
         d="m 134.83547,133.36959 c 0.11362,-0.0835 1.0127,-1.36021 1.99796,-2.83719 6.08676,-9.1245 14.52626,-16.78271 24.47396,-22.20828 1.45999,-0.79629 3.66652,-1.88792 4.90339,-2.42585 1.23688,-0.53793 2.36874,-1.16455 2.51524,-1.39247 0.74646,-1.16135 1.4377,-6.978182 1.24527,-10.479123 -0.74684,-13.588129 -8.62134,-25.748872 -20.62151,-31.846224 -12.06294,-6.129246 -27.04954,-5.247338 -38.06335,2.23987 -12.986252,8.828098 -19.112763,23.840771 -16.00085,39.209177 3.039505,15.01084 15.27838,26.77055 30.66736,29.46671 2.31072,0.40485 8.44656,0.59368 8.88253,0.27338 z"
         style="display:inline;fill:#ffffff;fill-opacity:1;fill-rule:evenodd" />
      <path
         inkscape:connector-curvature="0"
         id="path3455"
         d="m 281.05986,131.44051 c 5.94867,-2.17052 11.50467,-5.91812 15.55071,-10.48919 4.75461,-5.37158 7.74997,-11.6396 9.09357,-19.02894 0.50828,-2.795344 0.50035,-9.453245 -0.0147,-12.282618 -3.03009,-16.647571 -15.86232,-29.048547 -32.2866,-31.201591 -20.3427,-2.666693 -38.73831,10.985935 -42.30826,31.399833 -0.67164,3.840709 -0.57931,10.901406 0.15146,11.579656 0.14541,0.13498 1.05255,0.45348 2.01586,0.70781 2.79059,0.73674 8.13191,2.63147 11.15489,3.957 6.89467,3.02313 13.36428,7.24859 19.06341,12.4508 3.02846,2.76436 7.19988,7.69802 10.21253,12.07862 0.75129,1.09243 1.4972,2.09415 1.65758,2.22604 0.33109,0.27231 2.76788,-0.32412 5.70947,-1.39742 z"
         style="display:inline;fill:#ffffff;fill-opacity:1;fill-rule:evenodd" />
    </g>
  </g>
</svg>
