<?xml version="1.0" encoding="UTF-8" standalone="no"?>
<!-- Created with Inkscape (http://www.inkscape.org/) -->

<svg
   xmlns:dc="http://purl.org/dc/elements/1.1/"
   xmlns:cc="http://creativecommons.org/ns#"
   xmlns:rdf="http://www.w3.org/1999/02/22-rdf-syntax-ns#"
   xmlns:svg="http://www.w3.org/2000/svg"
   xmlns="http://www.w3.org/2000/svg"
   xmlns:sodipodi="http://sodipodi.sourceforge.net/DTD/sodipodi-0.dtd"
   xmlns:inkscape="http://www.inkscape.org/namespaces/inkscape"
   width="400"
   height="200"
   viewBox="0 0 400 200"
   id="svg9394"
   version="1.1"
   inkscape:version="0.91 r13725"
   sodipodi:docname="storm-trooper-mask-thumbsvg.svg">
  <defs
     id="defs9396" />
  <sodipodi:namedview
     id="base"
     pagecolor="#ffffff"
     bordercolor="#666666"
     borderopacity="1.0"
     inkscape:pageopacity="0.0"
     inkscape:pageshadow="2"
     inkscape:zoom="0.98994949"
     inkscape:cx="115.95598"
     inkscape:cy="-54.272183"
     inkscape:document-units="px"
     inkscape:current-layer="layer1"
     showgrid="false"
     units="px"
     fit-margin-top="0"
     fit-margin-left="0"
     fit-margin-right="0"
     fit-margin-bottom="0"
     inkscape:snap-global="true"
     inkscape:snap-object-midpoints="true"
     inkscape:snap-center="true"
     inkscape:window-width="1440"
     inkscape:window-height="873"
     inkscape:window-x="0"
     inkscape:window-y="27"
     inkscape:window-maximized="1" />
  <metadata
     id="metadata9399">
    <rdf:RDF>
      <cc:Work
         rdf:about="">
        <dc:format>image/svg+xml</dc:format>
        <dc:type
           rdf:resource="http://purl.org/dc/dcmitype/StillImage" />
        <dc:title></dc:title>
      </cc:Work>
    </rdf:RDF>
  </metadata>
  <g
     inkscape:label="Layer 1"
     inkscape:groupmode="layer"
     id="layer1"
     transform="translate(-750.35712,-218.86217)">
    <rect
       style="opacity:1;fill:#333333;fill-opacity:1;fill-rule:nonzero;stroke:#000000;stroke-width:0.17700374;stroke-opacity:1"
       id="rect9377"
       width="399.823"
       height="199.823"
       x="750.44562"
       y="218.95067" />
    <g
       id="layer3"
       inkscape:label="outline"
       style="display:inline;fill:#ffffff;fill-opacity:1"
       transform="matrix(0.30351595,0,0,0.30351595,480.06372,132.74116)"
       clip-path="none">
      <g
         transform="matrix(0.77386994,0,0,0.77386994,1272.7537,223.5328)"
         id="g9577"
         style="fill:#ffffff;fill-opacity:1">
        <g
           transform="translate(5.611933e-6,-1.3432489e-8)"
           style="display:inline;fill:#ffffff;fill-opacity:1"
           inkscape:label="head"
           id="layer4-5">
          <g
             id="g4492"
             style="fill:#ffffff;fill-opacity:1" />
        </g>
        <g
           id="g4470"
           style="display:inline;fill:#ffffff;fill-opacity:1">
          <path
             id="use4468"
             style="fill:#ffffff;fill-opacity:1;fill-rule:evenodd;stroke:none;stroke-width:1px;stroke-linecap:butt;stroke-linejoin:miter;stroke-opacity:1"
             d="m 269.04321,611.93569 c -47.78281,-0.88709 58.65737,-73.62705 88.55079,-74.75128 29.89342,1.12423 136.3336,73.8642 88.55079,74.75128 l -88.55079,1.64394 z m 88.50615,-244.04017 c -42.60363,-0.34824 -134.94958,4.07382 -198.86573,12.42108 -5.51884,0.72074 -1.11095,-21.03214 -5.22536,-22.55161 -21.14711,-7.8098 -18.5408,32.79273 -18.00306,36.68493 -1.98831,5.23915 -7.19565,28.64515 -0.70393,25.79553 82.67064,-36.28935 180.38474,-35.83315 222.84272,-36.78507 0,-14.2401 -0.098,-1.31576 -0.0446,-15.56486 z m 4e-5,0 -4e-5,0 c 42.60363,-0.34824 135.03886,4.07382 198.95501,12.42108 5.51884,0.72074 1.11095,-21.03214 5.22536,-22.55161 21.14711,-7.8098 18.5408,32.79273 18.00306,36.68493 1.98831,5.23915 7.19565,28.64515 0.70393,25.79553 C 497.76608,383.9561 400.05198,384.4123 357.594,383.46038 m -34.72471,31.76442 c 0,0 4.15072,-10.25358 -5.60401,-10.38764 -36.31786,-0.49911 -42.85622,-3.32346 -125.94724,10.02453 -19.9307,3.20173 -11.34452,47.78239 25.77738,62.67349 79.03637,-0.10886 105.77387,-65.15083 105.77387,-62.31038 z m 69.44942,0 c 0,0 -4.15072,-10.25358 5.60401,-10.38764 36.31786,-0.49911 42.85622,-3.32346 125.94724,10.02453 19.9307,3.20173 11.34452,47.78239 -25.77738,62.67349 C 419.05621,477.42632 392.31871,412.38435 392.31871,415.2248 Z M 286.25937,773.24881 c 32.07627,-67.25862 -114.20425,-122.53693 -77.85714,-3.57143 22.07069,11.54166 44.58964,21.88794 77.85714,3.57143 z m 142.66926,0 c -32.07627,-67.25862 114.20425,-122.53693 77.85714,-3.57143 -22.07069,11.54166 -44.58964,21.88794 -77.85714,3.57143 z m 99.21684,-167.65143 c 12.58648,7.84111 19.1706,17.85361 25.08881,30.15279 l -11.2363,5.41351 c -6.48169,-10.48715 -13.08391,-20.93413 -23.76009,-30.02312 z m 18.76361,-10.96731 c 16.64728,2.83174 27.81343,24.8766 28.94039,29.21574 l -10.36953,5.51308 c -3.37871,-7.04835 -15.71347,-27.03688 -28.53145,-28.52746 z m 14.39099,-11.21247 c 17.6769,0.9441 37.40497,17.98522 36.74861,25.59379 l -9.3568,6.44803 c -3.33505,-7.05459 -20.67173,-24.2146 -36.50221,-25.27483 z m 16.6867,-14.16981 c 19.63105,-0.033 38.20496,18.61487 36.75427,26.62061 l -6.76123,5.61211 c -2.46544,-8.11383 -23.89544,-25.31085 -38.58446,-24.61855 z m -390.94424,36.34959 c -12.58648,7.84111 -19.1706,17.85361 -25.08881,30.15279 l 11.2363,5.41351 c 6.48169,-10.48715 13.08391,-20.93413 23.76009,-30.02312 z m -18.76361,-10.96731 c -16.64728,2.83174 -27.81343,24.8766 -28.94039,29.21574 l 10.36953,5.51308 c 3.37871,-7.04835 15.71347,-27.03688 28.53145,-28.52746 z M 153.88793,583.4176 c -17.6769,0.9441 -37.40497,17.98522 -36.74861,25.59379 l 9.3568,6.44803 c 3.33505,-7.05459 20.67173,-24.2146 36.50221,-25.27483 z m -16.6867,-14.16981 c -19.63105,-0.033 -38.204963,18.61487 -36.75427,26.62061 l 6.76123,5.61211 c 2.46544,-8.11383 23.89544,-25.31085 38.58446,-24.61855 z m 255.74811,199.41108 c 13.31964,11.3651 27.9229,-41.72363 2.27284,-46.21448 -4.71404,-12.54273 1.31019,-35.82373 -14.14213,-37.62818 -2.52982,-17.72148 -13.25435,-15.71505 -23.48605,-16.41498 -10.2317,0.69993 -20.95623,-1.3065 -23.48605,16.41498 -15.45232,1.80445 -9.42809,25.08545 -14.14213,37.62818 -25.65006,4.49085 -11.0468,57.57958 2.27284,46.21448 14.12362,19.2697 61.68648,8.92171 70.71068,0 z m 19.90781,33.70333 c 72.84939,13.20486 132.36559,-1.82526 172.85715,-57.14285 l 5.71428,-47.14286 c 83.99342,-101.48886 35.71554,-147.5733 18.57143,-167.14286 -83.80952,-110.47619 73.9433,-318.93677 -252.406,-330.67995 -326.349304,11.74318 -168.59648,220.20376 -252.406,330.67995 -17.144114,19.56956 -65.421994,65.654 18.57143,167.14286 l 5.71428,47.14286 c 40.49156,55.31759 100.00776,70.34771 172.85715,57.14285 53.86456,-22.90275 55.11658,-22.9748 110.52628,0 z"
             inkscape:connector-curvature="0"
             sodipodi:nodetypes="scscscsscscccccsscsccsscccsscccccccccccccccccccccccccccccccccccccccccccccccccccccccccccccccccc" />
        </g>
      </g>
    </g>
  </g>
</svg>
